<?xml version="1.0" encoding="utf-8"?>
<!-- Generator: Adobe Illustrator 24.0.1, SVG Export Plug-In . SVG Version: 6.00 Build 0)  -->
<svg version="1.1" id="circle_cross" xmlns="http://www.w3.org/2000/svg" xmlns:xlink="http://www.w3.org/1999/xlink" x="0px"
	 y="0px" viewBox="0 0 96 96" style="enable-background:new 0 0 96 96;" xml:space="preserve">
<style type="text/css">
	.st0{fill:#FFFFFF;}
</style>
<path class="st0" d="M54.2,48l9.3-9.3c1.7-1.7,1.7-4.5,0-6.2c-1.7-1.7-4.5-1.7-6.2,0L48,41.8l-9.3-9.3c-1.7-1.7-4.5-1.7-6.2,0
	c-1.7,1.7-1.7,4.5,0,6.2l9.3,9.3l-9.3,9.3c-1.7,1.7-1.7,4.5,0,6.2c1.7,1.7,4.5,1.7,6.2,0l9.3-9.3l9.3,9.3c1.7,1.7,4.5,1.7,6.2,0
	c1.7-1.7,1.7-4.5,0-6.2L54.2,48z"/>
</svg>
