<?xml version="1.0" encoding="utf-8"?>
<!-- Generator: Adobe Illustrator 24.0.1, SVG Export Plug-In . SVG Version: 6.00 Build 0)  -->
<svg version="1.1" id="Camada_1" xmlns="http://www.w3.org/2000/svg" xmlns:xlink="http://www.w3.org/1999/xlink" x="0px" y="0px"
	 viewBox="0 0 640.5 640.5" style="enable-background:new 0 0 640.5 640.5;" xml:space="preserve">
<style type="text/css">
	.st0{fill:#F4F4F4;}
	.st1{fill:#9C1218;}
</style>
<circle class="st0" cx="320.3" cy="320.3" r="320.3"/>
<g>
	<path class="st1" d="M121.4,437.5c-8.6,1.9-16.6,3.6-24.5,5.3c-11,2.5-18.3-2.5-20-13.5c-0.6-4.1-1.4-8.1-2.1-12.1
		c-12,1-23.4,2-34.8,2.8c-4.6,0.3-9.4,0.4-13.9-0.2c-9.3-1.2-14.1-5.4-15.7-14.7c-1.6-9.8-2.8-19.7-3.4-29.6
		c-0.6-8.8,5.8-15.8,14.5-16.5c14.3-1.2,28.6-1.6,42.8-3c20.8-2.1,41.1-6.1,59.4-17.3c2.6-1.6,3.2-2.8,2.7-6.2
		c-1-7.9-0.7-16-0.5-23.9c0.1-6.3,0.2-12.7,1.6-18.8c2.7-11.6,10.1-20.2,20.3-26c3.6-2,5-4.4,4.8-8.3c-0.2-4.3-0.2-8.7,0.1-13
		c0.4-7.1,4.8-11.3,11.9-11.4c9.5-0.1,19,0,28.5,0c6.5,0,6.5,0,6.5-6.7c0-50.5,0-101,0-151.5c0-1.8,0-3.7,0.1-5.5
		c0-2.9,1.6-4.2,4.4-4.2c1.5,0,3,0,4.5,0c89.2,0,178.3,0,267.5,0.1c4,0,6.8-1.1,9.5-4.1c13.1-14.5,29.9-21.7,49.1-21.8
		c36.4-0.3,63.9,28.4,66.9,58.9c1.9,18.6-2.8,34.8-14.3,49.2c-8.7,10.8-15.3,22.5-17.5,36.5c-0.8,5.2-1.1,9,4.8,12.1
		c8.3,4.5,9.8,15.9,4.3,23.6c-0.9,1.2-1.8,2.3-2.8,3.7c4.2,4.7,7.1,9.8,5.6,16.4c-1.7,7.9-7.4,13.2-15.5,13.8c-3,0.2-4.4,1-4.8,4.2
		c-1.3,9.1-6.5,15.8-14.7,19.4c-4.5,2-5,4.8-5,8.9c0.1,72.3,0.1,144.7,0,217c0,14.2,1,12.5-12.6,12.6c-29.5,0-59,0.2-88.5-0.1
		c-5.3-0.1-6.5,1.6-6.3,6.5c0.4,9.2-0.1,18.3,0.2,27.5c0.2,4.9-1.6,6.3-6.4,6.3c-48.5-0.1-97-0.1-145.5,0c-3,0-6,1.9-9,2.9
		c-3.7,1.2-7.5,3.1-11.2,3.2c-13.7,0.4-27.3,0.2-41,0.2c-38.7,0-77.3,0-116,0c-10.4,0-15.9-3.3-18.6-11.1c-3-8.4,0.7-17.4,8.9-20.7
		c3.2-1.3,4.6-3.2,5.4-6.3c6.5-26.1,13.1-52.2,19.6-78.3C121.2,441.8,121.1,440.1,121.4,437.5z M494.1,221c-0.8-1.2-1.6-2.2-2.4-3.3
		c-5.9-8.3-4.1-19.4,4.9-24.2c4.7-2.5,4.9-5.6,4.2-9.7c-2.2-13.6-7.7-25.6-16.4-36.4c-4.4-5.5-8.1-11.8-11.3-18.1
		c-1.9-3.8-3.7-5.4-8.1-5.4c-72.8,0.1-145.6,0.1-218.4,0c-5,0-6.4,1.4-6.4,6.5c0.2,47.2,0.1,94.3,0.2,141.5c0,4,1.6,8,2.6,11.9
		c1.2,5,3.1,9.9,3.4,15c0.6,10,0.5,20,0.1,30c-0.1,2.8-2.3,5.5-3.6,8.3c-0.8,1.7-2.4,3.4-2.3,5c1.2,19.7,2.8,39.5,4.2,59.2
		c0.2,3.1,1.8,4.2,4.9,4.1c6.2-0.2,12.3-0.1,18.5,0c53,0.2,106,0.3,158.9,0.5c7.4,0,7.5,0.1,7.5,7.6c0,11.3,0.2,22.7-0.1,34
		c-0.1,4.2,1.4,5.5,5.5,5.5c18.7-0.1,37.3-0.2,56,0c4.1,0,5.4-1.3,5.4-5.4c-0.1-63.8-0.1-127.6,0-191.4c0-3-0.8-4.7-3.7-6.1
		c-10.1-5.1-12.6-16.8-5.8-25.8C492.5,223,493.2,222.1,494.1,221z M264.5,525.7c0.1-0.6,0.3-1,0.2-1.3c-0.3-1.3-0.7-2.6-1-3.8
		c-17-57.9-28.6-116.8-30.5-177.3c-0.1-3.6-1.4-4.6-4.7-4.6c-28.2,0.1-56.3,0.1-84.5,0c-3.2,0-4.5,0.9-4.8,4.5
		c-1,16.4-2.1,32.9-3.8,49.2c-3.4,33.8-10.4,66.9-18.8,99.7c-2.8,11.1-6,22-9.1,33.5C160.2,525.7,212.3,525.7,264.5,525.7z
		 M476.6,70.8c-90.5,0-180.1,0-269.8,0c0,53.5,0,106.5,0,159.5c11.3,3,13,5.3,13.1,16.7c0,3.5-0.1,7,0.1,10.5
		c0.1,1.4,0.4,3.4,1.3,4.1c3.5,2.6,7.4,4.7,11.9,7.5c0-2.8,0-4.7,0-6.7c0-45.8,0-91.6,0-137.4c0-7.8,0-7.9,7.7-7.9
		c73.8,0,147.6,0,221.4,0c2.1,0,4.2,0,6.9,0C466.4,100.6,468.8,85.6,476.6,70.8z M427.6,426.3c-3.5,1.8-6.1,3-8.5,4.4
		C388.6,447.4,358,464,327.6,481c-7.3,4.1-13.7,4.3-21,0.1c-15.6-9-31.5-17.4-47.2-26c-1.5-0.8-3.1-1.5-5.4-2.7
		c0.3,2.4,0.3,3.9,0.7,5.3c4.9,19.3,9.7,38.6,14.7,57.9c1.3,4.8,2,10.2,4.9,14c3.8,5,6.3,10,6.3,16.6c2.2,0.2,4.1,0.4,6.1,0.4
		c44.8,0,89.7,0,134.5,0c6.7,0,6.7,0,6.7-6.6c0-35.8,0-71.7,0-107.5C427.9,430.8,427.7,429,427.6,426.3z M535,190.9
		c7.7,0,15.3,0.1,23-0.1c1.4-0.1,3.8-1.8,3.9-2.9c1.8-17.6,8.7-32.9,20-46.5c9.5-11.4,13.6-24.7,13.4-39.7
		c-0.4-30.1-28.7-63-69.4-56.8c-44.5,6.8-66.9,58.9-38.2,95.4c11,13.9,19,28.8,20.4,46.8c0.2,2.9,1.6,3.9,4.5,3.9
		C520,190.9,527.5,191,535,190.9z M508.4,260.3c0,2,0,3.9,0,5.9c0,62.1,0,124.3,0,186.4c0,6.5-0.3,6.8-6.8,6.8
		c-20.5,0-41,0.1-61.5-0.1c-4.3,0-5.8,1-5.7,5.6c0.3,11.8,0.3,23.7,0,35.5c-0.1,4.7,1.4,5.8,5.9,5.8c29.7-0.2,59.3-0.1,89-0.1
		c1.8,0,3.5-0.2,5.8-0.3c0-2.8,0-5.1,0-7.4c0-71-0.1-141.9,0.1-212.9c0-5.2-0.6-7.8-6.6-8.8C519.2,275.2,513.5,268.3,508.4,260.3z
		 M421.8,420.9c-5.2-6.7-12-8.5-19.6-8.5c-50,0-100,0-149.9,0c-1.8,0-3.5,0.2-6,0.3c1.8,9.7,3.2,18.9,5.2,27.9
		c0.4,1.7,2.5,3.3,4.2,4.3c18.2,10.1,36.5,20,54.6,30.2c4.8,2.7,8.6,2.6,13.4,0c31.3-17.4,62.7-34.5,94-51.7
		C419.1,422.8,420.2,421.9,421.8,420.9z M186.4,331.9c8,0,16,0,24,0s16-0.1,24,0c3.2,0,5.6-0.6,5.5-4.6c-0.3-10.6,0-21.3-0.9-31.9
		c-1.5-15.8-17.1-29.7-33.1-29.9c-13-0.2-26-0.2-39,0c-16.7,0.3-31.8,13.9-33.4,30.7c-0.9,9.7-0.5,19.6-0.9,29.4
		c-0.2,4.7,1.5,6.5,6.3,6.4C154.7,331.7,170.5,331.9,186.4,331.9z M132.4,342.2c-2.5,1.1-3.6,1.5-4.5,2.1
		c-20.7,12.8-43.8,17.2-67.5,19.2c-12.1,1-24.3,1.4-36.4,2c-6.4,0.4-10.9,5.1-10.2,11.1c0.9,8.4,1.9,16.9,3.2,25.2
		c1.4,8.9,4.4,11.1,13.4,11.2c32.3,0.4,63.4-6.2,94.2-15.3c3.2-1,4-3,4.3-5.8c0.6-5.6,1.3-11.2,1.7-16.9
		C131.3,364.5,131.8,353.9,132.4,342.2z M183.3,533.4c-25.6,0-51.3,0-76.9,0c-1.7,0-3.3-0.1-5,0.1c-4.5,0.6-7.9,4.1-8.5,8.6
		c-0.5,4.3,2.2,8.7,6.6,10c2.2,0.7,4.6,0.8,6.9,0.8c51.1,0,102.2,0,153.3,0c2.6,0,5.9,0.1,7.7-1.3c2.5-1.9,4.7-5.1,5.5-8.1
		c1.1-3.9-1.3-7.2-4.9-8.8c-2.2-1-4.8-1.3-7.2-1.3C234.9,533.4,209.1,533.4,183.3,533.4z M534.9,244.5
		C534.9,244.5,534.9,244.5,534.9,244.5c9.3,0,18.7,0,28,0c7.3,0,12-3.7,12.2-9.7c0.2-6-4.3-10.2-11.6-10.3
		c-18.8-0.1-37.7-0.1-56.5,0c-7.4,0-11.7,4.1-11.6,10.2c0.1,6.1,4.7,9.8,12,9.7C516.6,244.4,525.7,244.5,534.9,244.5z M535.4,217.2
		c9.8,0,19.6,0.1,29.4,0c5.9,0,9.8-3.4,10.2-8.7c0.4-5.6-3.1-10.1-9.1-10.2c-20.3-0.3-40.6-0.3-60.9-0.1c-6,0.1-9.7,4.6-9.5,10
		c0.2,5.4,4.3,8.9,10.5,9C515.8,217.3,525.6,217.2,535.4,217.2z M186.3,258c4.8,0,9.7,0,14.5,0c12.4,0,12.4,0,12.3-12.3
		c-0.1-6.4-1.1-7.6-7.5-7.7c-10.3-0.1-20.7,0-31-0.1c-15.6,0-15.6,0-15.1,15.8c0.1,3.2,1.1,4.4,4.3,4.4
		C171.3,257.9,178.8,258,186.3,258z M127.3,404.6c-11.9,3-22.7,5.9-33.5,8.5c-12.3,2.9-12.3,2.8-10.1,15.3c0.1,0.7,0.3,1.3,0.5,1.9
		c1.5,4.9,4.8,7,9.9,5.9c8.5-1.7,16.9-3.6,25.3-5.6c1.5-0.4,3.8-1.7,4-2.9C124.9,420.3,125.9,412.8,127.3,404.6z M515.7,251.8
		c-0.2,7.4,3.4,12.3,8.9,15.8c6.7,4.3,13.9,4.4,20.7,0.2c5.8-3.5,9.3-8.7,9.5-16.1C541.5,251.8,528.8,251.8,515.7,251.8z"/>
	<path class="st1" d="M310.4,271.1c2,0,3.9,0,5.9,0c45.8,0,91.7,0,137.5,0c3,0,7.3-1.1,7.4,3.5c0.1,4.8-4.2,3.8-7.2,3.8
		c-58,0-116,0-174,0c-6.7,0-7-0.3-7-7.1c0-33.2,0-66.3,0.1-99.5c0-3-1.3-7.7,3.9-7.5c4.7,0.2,3.3,4.6,3.3,7.5
		c0.1,30.7,0.1,61.3,0.1,92c0,2,0,3.9,0,6.8c35.7-8.7,68.7-21.5,98.5-41.6c20.1-13.5,37.7-29.8,52.1-51.3c-7.2,0-13.1,0-19,0
		c-2,0-4,0-6,0c-2.3-0.1-5,0.1-5-3.3c-0.1-3.4,2.5-3.4,4.9-3.4c7.8,0,15.7,0,23.5,0c12,0,12,0,12,12.1c0,7.5,0,15,0,22.5
		c0,2.7-0.1,5.5-3.4,5.6c-3.7,0.1-3.9-3-4-5.7c-0.1-5.6,0-11.3-0.6-17.3C401.6,229.4,358.4,253.4,310.4,271.1z"/>
	<path class="st1" d="M310.1,351.9c-10.3,0-20.7-0.1-31,0c-4.3,0.1-6-1.7-6-5.9c0.1-9.7,0.1-19.3,0-29c0-3.7,1.5-5.5,5.4-5.4
		c21.2,0.1,42.3,0.1,63.5,0c4,0,5.7,1.4,5.6,5.6c-0.2,9.7-0.2,19.3,0,29c0.1,4.5-1.9,5.8-6,5.7C331,351.8,320.5,351.9,310.1,351.9z
		 M340.1,318.5c-19.3,0-38-0.1-56.8,0.2c-1,0-2.7,2.2-2.8,3.4c-0.3,6,0.1,12-0.2,18c-0.2,3.8,1,5.2,5,5.2
		c11.3-0.2,22.6-0.1,33.9-0.1c6.8,0,13.6,0,20.8,0C340.1,336,340.1,327.5,340.1,318.5z"/>
	<path class="st1" d="M411.4,311.6c10.3,0,20.6,0.1,31-0.1c4.4-0.1,6,1.8,5.9,6c-0.1,9.5-0.1,19,0,28.5c0,4.1-1.6,6-5.9,6
		c-21-0.1-42-0.1-62.9,0c-4,0-5.6-1.6-5.5-5.7c0.2-9.7,0.3-19.3,0-29c-0.1-4.6,1.9-5.8,6-5.7C390.4,311.7,400.9,311.6,411.4,311.6z
		 M411.3,345.1c8.5,0,17-0.1,25.5,0.1c3.2,0.1,4.5-0.9,4.4-4.2c-0.2-6.2-0.2-12.3,0-18.5c0.1-3.1-1.2-4-4.1-4
		c-17.3,0.1-34.6,0.1-51.9,0c-3.4,0-4.3,1.5-4.3,4.5c0.1,5.8,0.2,11.7,0,17.5c-0.1,3.7,1.5,4.9,5.1,4.8
		C394.3,344.9,402.8,345.1,411.3,345.1z"/>
	<path class="st1" d="M333.7,97.4c-10.8,0-21.6,0-32.5,0c-1.2,0-2.6,0.4-3.4-0.1c-1.5-0.9-2.6-2.3-3.9-3.5c1.3-1.2,2.3-3.1,3.8-3.5
		c2.3-0.6,5-0.2,7.5-0.2c20.1,0,40.3,0,60.4,0c1.2,0,2.5-0.4,3.5,0.1c1.8,0.9,3.4,2.3,5.1,3.5c-1.7,1.2-3.3,3.3-5,3.5
		c-4.9,0.5-10,0.2-15,0.2C347.4,97.4,340.6,97.4,333.7,97.4z"/>
	<path class="st1" d="M410.2,99.2c-1.3-1.8-3.5-3.4-3.9-5.3c-0.6-3.1,1.7-5.4,4.7-4.8c1.8,0.4,4.2,2.8,4.4,4.6
		c0.2,1.7-2,3.6-3.2,5.5C411.6,99.2,410.9,99.2,410.2,99.2z"/>
</g>
</svg>
