<?xml version="1.0" encoding="utf-8"?>
<!-- Generator: Adobe Illustrator 24.0.1, SVG Export Plug-In . SVG Version: 6.00 Build 0)  -->
<svg version="1.1" id="Camada_1" xmlns="http://www.w3.org/2000/svg" xmlns:xlink="http://www.w3.org/1999/xlink" x="0px" y="0px"
	 viewBox="0 0 640.5 640.5" style="enable-background:new 0 0 640.5 640.5;" xml:space="preserve">
<style type="text/css">
	.st0{fill:#F4F4F4;}
	.st1{fill:#9C1218;}
</style>
<circle class="st0" cx="320.3" cy="320.3" r="320.3"/>
<g>
	<path class="st1" d="M214.8,328.4c2.4-14.5,4.6-27.9,6.9-41.4c1.8-10.6,3.8-21.3,5.6-31.9c1-6-0.4-11-5-15.4
		c-16.3-15.7-32.5-31.6-48.7-47.4c-4.4-4.3-7.8-9.1-8.1-15.5c-0.6-12.6,7.6-21.3,21.7-23.3c21.9-3,43.8-6.1,65.7-9.2
		c6.4-0.9,10.9-4,13.8-10.1c9.8-20.2,19.9-40.3,29.8-60.4c3.2-6.6,7.7-11.7,15.2-13.4c10.7-2.4,19.5,2.2,24.9,12.8
		c5.1,10.1,10.1,20.3,15.1,30.4c4.9,9.8,10,19.6,14.4,29.6c3.2,7.2,8.5,10.3,16.1,11.3c22.6,3,45.1,6.5,67.6,9.8
		c8.6,1.3,14.3,6.4,17,14.3c2.9,8.3,0.6,15.8-5.7,21.9c-16.2,15.9-32.2,31.9-48.7,47.4c-6,5.7-7.7,11.7-6.2,19.7
		c4.2,22,7.9,44.2,11.6,66.3c2.8,16.7-13.3,30.1-28.9,23.1c-15.3-6.8-29.9-15.2-44.9-23c-6.4-3.3-12.7-6.5-19-10
		c-5.8-3.2-11.2-3-17,0.1c-19.7,10.5-39.5,20.8-59.2,31.1c-12.7,6.6-25.1,3.7-31-7.5C216.1,334.8,215.6,331.1,214.8,328.4z
		 M314.2,66.9c-2.5,0-6.6,1.9-9.2,6.3c-2.1,3.6-4,7.3-5.8,11c-8.9,17.9-17.7,35.8-26.5,53.7c-3.5,7.1-8.7,11.7-16.6,12.9
		c-7.4,1.2-14.8,2.1-22.2,3.2c-16.3,2.4-32.6,4.7-48.8,7.2c-5.8,0.9-10.1,4-12,10c-1.8,5.9-0.1,10.7,4.3,14.9
		c5.9,5.6,11.7,11.4,17.5,17.1c10.8,10.6,21.7,21.2,32.5,31.8c5.3,5.2,8.4,11.2,7.2,18.8c-3.8,23.3-7.7,46.5-11.9,69.7
		c-1.2,6.4-0.3,11.6,4.9,15.6c5.5,4.2,11.1,4,17.2,0.7c19.2-10.3,38.6-20.2,57.7-30.7c9.5-5.2,18.3-5.4,27.8-0.2
		c19.6,10.7,39.4,20.8,59.1,31.3c5.8,3.1,11.2,2.6,16.3-1.3c4.7-3.6,6-8.4,5-14.2c-3.6-20.8-6.6-41.7-10.8-62.3
		c-2.6-12.6-0.5-22.3,9.4-31.3c15.8-14.2,30.6-29.7,45.9-44.5c4.6-4.5,6.7-9.5,4.7-15.7c-2-6.2-6.8-9-13.1-9.9
		c-21.1-3-42-6.5-63.2-9c-12.5-1.5-20.5-7.1-25.7-18.7c-8.6-19.1-18.4-37.7-27.6-56.5C327.6,71.1,323.7,66.9,314.2,66.9z"/>
	<path class="st1" d="M411.7,484.4c18.2-3.5,35.4-2.1,52.3,3.4c7.8,2.5,15.1,6.2,20.7,12.5c6.1,7,5.8,15.9-0.9,22.3
		c-7.3,7-16.7,9.6-26.3,10.9c-19.8,2.8-39.1,0.6-57.2-8.7c-6.7-3.4-12.4-7.8-14.7-15.5c-0.3-0.8-1-1.9-1.7-2.2
		c-11.1-4.4-14.5-14.4-16.8-24.5c-5-22.3-2.9-43.9,7.6-64.5c1.3-2.6,3.1-5.1,5.1-7.4c8.8-10.2,20.9-9.3,28.3,2
		c5.1,7.7,7,16.4,8.1,25.4c1.8,14.6,0.2,28.9-4.1,42.9C411.8,482,411.9,482.8,411.7,484.4z M433,489.8c-15.4-0.4-28,2.6-35.8,8.1
		c-6,4.3-6.5,9.9-1.4,15.1c1.4,1.4,3,2.7,4.7,3.7c15.7,9.3,32.9,11.9,50.9,10.3c8.8-0.8,17.4-2.6,25-7.6c6.3-4.2,7-10,1.8-15.5
		c-1.4-1.4-3-2.7-4.7-3.7C460.7,492.4,446.5,489.7,433,489.8z M370.7,461.4c1.7,8.6,3,17.3,5.2,25.7c1,3.8,3.7,7.4,6.1,10.7
		c1.8,2.4,3.7,2.3,6-0.4c2.6-3.1,5.9-6,9.4-7.8c3.8-1.9,5.8-4.6,7.1-8.4c4.8-13.4,6.4-27.3,4.6-41.3c-1.1-8-4-16.1-7.6-23.4
		c-3.7-7.3-11-7.2-16.3-1c-2,2.4-3.7,5.1-5.1,7.9C373.9,435.3,371.8,448,370.7,461.4z"/>
	<path class="st1" d="M218.2,483.5c-1.4-7.8-3.2-15.8-4.1-23.8c-1.6-15.1-0.5-30,6.5-43.8c7.7-15.2,22.5-16.3,32.3-2.3
		c6.8,9.7,10.2,20.9,11.7,32.5c2,15,1.7,29.9-3.7,44.3c-2.7,7.1-6.3,13.6-14,16.7c-1,0.4-2,1.8-2.4,2.9c-2.1,6.7-7,10.8-12.8,14
		c-15.6,8.5-32.5,11.1-50,10.3c-10.4-0.5-20.5-2.4-29.7-7.5c-6.5-3.7-11.3-8.8-10.5-17.2c0.5-6,4-10.2,8.6-13.4
		c10.3-7.2,21.9-11.4,34.3-12.4C195.5,482.8,206.8,483.5,218.2,483.5z M199.1,489.2c-7.4,1-15,1.1-22.1,3.1
		c-7.6,2.1-15.1,5.2-21.8,9.2c-9.5,5.6-8.7,14.4,1.1,19.5c0.6,0.3,1.2,0.6,1.8,0.8c18.1,7.9,36.7,7.2,55.1,1.9
		c7.3-2.1,14.4-6,20.7-10.4c6.1-4.4,5.3-11-0.8-15.4c-1.6-1.2-3.4-2.2-5.2-3C218.8,490.8,209.1,489.6,199.1,489.2z M258.8,462.2
		c-0.4-5.1-0.6-10.3-1.4-15.4c-1.7-11.1-4.7-21.8-11.8-30.8c-5.4-6.8-12.5-6.5-17.2,0.7c-1.9,2.9-3.4,6.1-4.4,9.4
		c-5.7,19.3-4.3,38.4,2.8,57.2c0.8,2.2,3.3,3.9,5.2,5.5c3.3,2.8,7.3,4.8,9.9,8.1c2.8,3.5,4.7,3,7,0.3c1.4-1.6,2.6-3.5,3.5-5.4
		C257,482.5,258.5,472.5,258.8,462.2z"/>
	<path class="st1" d="M474.1,434.6c6.1-1.2,12.1-2.7,18.1-3.4c13.4-1.4,26.6-0.1,39,5.5c2.5,1.2,5,2.7,7.2,4.4
		c9,7.2,8.7,17.5-0.7,24.2c-9.3,6.6-20.1,8.7-31.1,9.4c-12.2,0.8-24.2-0.6-35.6-5.8c-0.2-0.1-0.3-0.1-0.5-0.2
		c-8.8-2.5-12-12.1-21.1-15.2c-8.8-3-13.3-12.4-16.2-21.2c-2.7-8.5-4.5-17.3-5.9-26.1c-1.3-8.4-0.5-16.9,2.8-25
		c5.3-13,17.1-15.2,26.7-4.8c10,10.9,14.1,24.3,16,38.5C473.8,421.5,473.7,428,474.1,434.6z M502.4,469c8.4-2,17-3.7,25.3-6.2
		c4.5-1.4,9.5-3.8,9.7-9.6c0.1-6.1-5.3-8-9.7-10.1c-11.5-5.5-23.9-6.4-36.1-4.6c-7.8,1.2-15.6,4.3-22.8,7.9
		c-5.8,2.8-5.6,8.4-0.4,12.5c2.3,1.8,5,3.6,7.8,4.4C484.6,465.4,493.2,467,502.4,469z M467.4,425.9c-1.3-7.5-2.2-15.1-4.1-22.4
		c-2.2-8.6-6-16.6-12.5-22.9c-5.5-5.3-10.5-4.3-13.7,2.7c-0.5,1.1-0.8,2.2-1.1,3.3c-4.2,15.5-1.5,30.4,4.7,44.7
		c2.4,5.6,6.6,10.7,10.6,15.4c1.1,1.4,5.8,2,6.7,1C463.3,441.6,468.5,435.1,467.4,425.9z"/>
	<path class="st1" d="M156.8,435.3c-1.1-14.6,0.2-28.3,5.9-40.9c3.2-7.1,7.7-14,13-19.8c7.4-8,18.1-5.9,23.2,3.8
		c4.7,8.9,4.9,18.6,4.1,28.2c-1.2,15.3-5,30-15.6,41.7c-3.1,3.4-8.1,5.2-12.3,7.7c-1,0.6-2.4,0.8-2.9,1.6
		c-5.6,10.1-15.5,13.2-25.6,15.4c-15.4,3.4-30.7,2.6-45.6-3.2c-3.1-1.2-6-2.9-8.7-4.8c-9.1-6.8-9.3-16.9-0.4-23.9
		c7.8-6.1,17.1-8.5,26.8-9.8C131.4,429.8,143.8,431,156.8,435.3z M128.1,467.7c0.1,0.5,0.2,0.9,0.3,1.4c9.1-2.1,18.4-3.9,27.4-6.5
		c4.5-1.3,9.4-3.9,9.6-9.6c0.3-6-5-7.8-9.3-9.9c-12-5.7-24.8-6.3-37.6-4.4c-6.9,1-13.9,3.5-20.1,6.8c-8.1,4.3-7.7,10.9,0.3,15.5
		C107.8,466.2,117.8,467.8,128.1,467.7z M163.7,422.6c-0.3,8.5-0.1,16.1,6.5,22.4c4.2,4.1,5.3,5,9.7,1c1.8-1.6,3.5-3.6,4.8-5.7
		c8.6-12.9,11.7-27.4,11.4-42.7c-0.1-5.2-1.6-10.5-3.5-15.4c-2.4-6-7.5-6.8-12.4-2.6c-1.1,1-2.1,2.1-3,3.3
		C167.8,394.7,164.7,408.5,163.7,422.6z"/>
	<path class="st1" d="M111.6,368.9c2.8-7.3,4.6-14.5,8.2-20.8c3.8-6.6,8.5-13.3,14.3-18.2c9.6-8.1,21.1-3.2,22.8,9.3
		c2.9,21.6-3.9,40.3-18.7,56.1c-3.7,3.9-8.2,6.2-13.7,6c-0.7,0-1.4-0.2-2,0.1c-15.3,8.2-28.7,1.6-41.8-5.5c-9.1-5-17-11.7-22.4-20.9
		c-3.3-5.7-5.6-11.6-1-17.7c4.5-6,11-6.4,17.6-5.5c12.9,1.7,24,7.5,34.2,15.3C109.8,367.8,110.6,368.3,111.6,368.9z M74.7,359
		c-12.1-0.1-15.5,4.2-11,11.3c10.5,16.7,26.2,25.7,45.6,27.9c8.3,0.9,11.6-4.7,7.2-11.7C106.2,370.1,90.7,361.7,74.7,359z
		 M127.5,394.3c2-1.5,4.8-3,6.8-5.2c11.3-12.7,16.7-27.7,16.1-44.7c-0.1-4.3-0.5-9.3-5.4-10.9c-4.6-1.6-7.8,2.3-10.5,5.2
		c-8.8,9.4-13.1,21-15.3,33.5c-0.3,1.8,0,4,0.7,5.8C122,383.2,124.6,388.4,127.5,394.3z"/>
	<path class="st1" d="M518.8,368.9c9.1-6.9,18.5-13.2,29.8-15.6c4.9-1.1,10.3-1.7,15.2-1.1c9.9,1.3,13.9,8.9,10.4,18.4
		c-3.1,8.4-9.2,14.6-16.2,19.8c-11.4,8.5-23.7,14.9-38.4,14.5c-3.2-0.1-6.3-1.6-9.5-2.5c-0.8-0.2-1.5-1.1-2.2-1
		c-12.5,0.6-19-7.9-24.4-17c-8.2-13.8-13-28.7-10.1-45.2c2.3-12.9,13.4-17.2,23.7-9c11,8.9,16.1,21.3,19.8,34.4
		c0.3,1,0.4,1.9,0.8,2.9C517.9,368,518.3,368.4,518.8,368.9z M560.1,358.3c-20.1,3.3-35.8,11.5-46.3,28.1
		c-4.6,7.3-1.1,12.8,7.6,11.8c18.8-2.2,34-11.1,44.6-27c1.6-2.4,2.3-6.7,1.2-9.1C566.3,360,562.3,359.3,560.1,358.3z M502.5,394.7
		c3.1-6.4,5.8-11.7,8.1-17.1c0.7-1.7,1-4,0.5-5.7c-1.7-6.2-3.3-12.5-5.8-18.5c-3.1-7.4-7.4-14.2-14.4-18.7c-4.5-2.9-7.9-1.7-9.8,3.3
		c-0.6,1.5-1,3.2-1.1,4.8c-1.2,15.8,3.4,29.9,12.7,42.5C495.4,389,499.4,391.8,502.5,394.7z"/>
	<path class="st1" d="M92.4,296.6c7-7.8,13.2-15.6,20.3-22.4c3.4-3.3,8.3-5.6,12.9-7.1c8.9-2.9,16.3,2.6,16.3,11.8
		c0,4.7-0.6,9.7-2.2,14.1c-5.2,14.1-13.9,25.7-26.8,33.8c-5,3.1-10.3,5.5-16.5,3.5c-0.5-0.2-1-0.3-1.5-0.1
		c-13.2,4.1-22.9-2.8-31.9-10.7c-9.4-8.2-16.9-17.9-19.9-30.4c-1.3-5.6-1.4-11,3-15.3c4.5-4.4,10-3.8,15.5-2
		c11.9,3.9,20.4,12.2,28.1,21.6c0.8,1,1.6,2.1,2.4,3.2C92.4,296.7,92.8,296.8,92.4,296.6z M93.4,317.9c-0.1-0.6-0.3-1.8-0.6-2.9
		c-5-16.8-16-28.3-31.6-35.9c-1.2-0.6-2.5-0.9-3.8-1.1c-6.1-1-8.9,1.7-7.7,7.9c2.1,10.9,8.3,19.7,16.5,26.6
		c5.6,4.7,12.3,8.3,19,11.4C89.7,326.1,93.2,323.1,93.4,317.9z M101.1,323.9c2.3-0.9,5.1-1.4,7.3-2.8c13-8.1,21.4-19.7,25.8-34.3
		c0.7-2.2,1-4.6,1-6.9c-0.1-5.1-2.9-7.3-7.9-5.9c-1.9,0.5-3.8,1.3-5.5,2.3c-10.7,6.6-18,16.1-23.1,27.4c-0.5,1.2-0.9,2.6-0.7,3.8
		C99,312.8,100,318,101.1,323.9z"/>
	<path class="st1" d="M536.9,296.8c5.5-5.5,10.5-11.7,16.6-16.4c5.3-4,11.6-7.3,18-9.2c10.3-3.2,18.8,4.8,16.2,15.2
		c-5.2,21.4-18.2,37.2-39.2,43.5c-12,3.6-25.5,2.7-36.5-6.8c-9.6-8.4-17.3-18.1-21.4-30.2c-1.6-4.7-2.4-10.1-2.1-15.1
		c0.6-9.1,7.8-13.6,16.6-10.9c8.2,2.5,14.7,7.8,20.1,14.2C529.4,286.2,533,291.6,536.9,296.8z M581.1,284.3c-0.3-5.1-2-6.8-7-6.3
		c-1.6,0.2-3.3,0.5-4.8,1.2c-15.4,7.1-26.2,18.5-31.3,34.8c-0.9,2.7-0.6,7.4,1.2,9c1.8,1.6,6.4,1.3,9.1,0.2
		c14.2-5.9,23.9-16.5,30.2-30.3C579.7,290.1,580.2,287.1,581.1,284.3z M529.7,324.6c0.3-4.7-0.3-8.6,1-11.5
		c2.9-6.5,0.4-11.7-3.1-16.7c-3.1-4.5-6.2-9.2-10.2-12.8c-4.4-3.9-9.6-7-14.9-9.6c-4.1-1.9-7.1,0.6-7.4,5.1c-0.1,2,0,4,0.5,5.9
		c3.4,14,11.3,25.1,22.6,33.7C521.5,321.3,525.7,322.6,529.7,324.6z"/>
	<path class="st1" d="M116.1,224.5c0.2,12.7-1.7,24.1-8.1,34.3c-3.1,5-7.2,9.1-13.5,9c-6.7-0.2-11-4.6-13.4-10.4
		c-8.7-20.7-8.1-41.3,3.1-60.8c7.1-12.5,19.7-11.5,26.3,1.3C115.1,206.6,116.5,215.8,116.1,224.5z M81.4,229.7
		c2,8.2,3.3,16.1,5.9,23.5c1,2.9,4.7,6.7,7.3,6.8c2.6,0.1,6.3-3.3,7.9-6.1c6.4-10.8,7.9-22.9,6.4-35.1c-0.7-6.2-2.5-12.4-5-18.1
		c-3.3-7.4-8.9-7.4-13.5-0.7c-0.9,1.4-1.9,2.8-2.4,4.4C85.7,212.8,83.6,221.3,81.4,229.7z"/>
	<path class="st1" d="M555.3,235.2c-1.5,5.3-3.1,14.8-6.9,23.2c-5.6,12.4-18.3,12.5-25.7,1c-7.7-12-9.5-25.5-8.3-39.2
		c0.6-7.3,2.7-14.6,5.1-21.6c2-5.6,5.9-10,12.7-10.4c7-0.5,11,3.8,14.3,9C553.1,207.6,554.2,219.4,555.3,235.2z M547.6,230.4
		c-0.1-10.8-1.6-21.2-7.8-30.4c-4.6-6.9-10.1-6.7-13.5,0.8c-8.3,18.4-7.4,36.9,2.2,54.6c4,7.4,9.8,7.1,13.9-0.3
		C546.6,247.4,547.7,239,547.6,230.4z"/>
</g>
</svg>
