<?xml version="1.0" encoding="utf-8"?>
<!-- Generator: Adobe Illustrator 24.0.1, SVG Export Plug-In . SVG Version: 6.00 Build 0)  -->
<svg version="1.1" id="Camada_1" xmlns="http://www.w3.org/2000/svg" xmlns:xlink="http://www.w3.org/1999/xlink" x="0px" y="0px"
	 viewBox="0 0 640.5 640.5" style="enable-background:new 0 0 640.5 640.5;" xml:space="preserve">
<style type="text/css">
	.st0{fill:#F4F4F4;}
	.st1{fill:#9C1218;}
</style>
<circle class="st0" cx="320.3" cy="320.3" r="320.3"/>
<g>
	<path class="st1" d="M410,83.7c-15.9-21.1-12.1-46.9,5.2-61.8c15.9-13.7,40.1-13.1,55.1-0.7c19.8,16.3,20.5,41.9,8.8,58.7
		c-11.5,16.5-38.2,28-63.4,9.5c-9.9,9.7-19.7,19.2-30.4,29.6c2.7,0,4.7,0,6.6,0c35.3,0,70.7,0.4,106-0.2c17-0.3,25.8,12.9,25.7,25.9
		c-0.3,81.5,0.1,163-0.5,244.5c-0.1,8.2-4,16.7-7.3,24.6c-15.7,36.5-43.1,61.8-78,79.6c-1.9,1-3.9,1.9-5.8,2.9
		c-11.1,5.8-22.5,8.4-35.3,8.3c-77.3-0.5-154.7-0.2-232-0.2c-17.3,0-26.6-9.2-26.6-26.5c0-110.8,0-221.7,0-332.5
		c0-17.3,9.1-26.4,26.6-26.4c68,0,136,0,204,0.1c4,0,6.9-1.1,9.7-3.9C388.8,104.7,399.3,94.3,410,83.7z M516.2,386
		c0.1-1.3,0.4-2.9,0.4-4.5c0-78.8,0.1-157.7,0-236.5c0-13.3-6.1-19.2-19.4-19.2c-38.2-0.1-76.3,0-114.5-0.1c-3.8,0-6.6,1.3-9.2,3.9
		c-11.4,11.7-23.1,23.1-34.6,34.7c-2.5,2.5-4.8,5.2-7.5,7.3c-1,0.8-3.2,0.1-4.8,0.2c0-1.6-0.4-3.4,0.1-4.8c0.4-1.1,1.7-2,2.7-2.9
		c11.1-11.1,22.2-22.1,33.2-33.2c1.2-1.2,2.3-2.5,3.5-3.7c-0.2-0.4-0.4-0.9-0.5-1.3c-2.1,0-4.2,0-6.3,0c-64,0-128,0-192,0
		c-1.7,0-3.3-0.1-5,0.1c-11.7,0.8-17,6.4-17,18.3c0,111.7,0.1,223.3-0.2,335c0,11.6,8.3,18.2,18.1,18.2c80.5-0.3,161-0.2,241.5-0.1
		c4.7,0,7.2-1.6,9.5-5.5c13-21.8,16.4-45.4,14.2-70.2c-0.6-6.9-2-13.8-2.4-20.8c-0.4-6.9,4.5-12.2,11.3-12.8
		c11.1-0.8,22.2-1.7,33.4-2C485.7,385.8,500.7,386,516.2,386z M424,491.5c36.2-9.1,90.4-67.4,90.3-97.4c-1.1-0.2-2.2-0.6-3.3-0.6
		c-21.9,0.2-43.9,0.8-65.8,0.7c-12,0-13.4,3-11.2,14.7c3.3,17.8,3.3,35.8-0.8,53.5C430.8,472.2,427.1,481.7,424,491.5z M479.9,55.3
		c0-19.9-16.5-36.6-36.5-36.8c-19.9-0.1-36.5,16.4-36.7,36.5c-0.2,19.7,16.4,36.5,36.5,36.8C462.8,92.1,479.9,75.2,479.9,55.3z"/>
	<path class="st1" d="M320.6,313.5c-1.9,1-3.8,1.7-5.4,2.8c-1.6,1.2-2.8,2.8-4.2,4.2c-7.5,7.8-14.7,8.2-22.6,1
		c-9.9-8.9-11-11.5-22,0.1c-6.3,6.6-14,6.5-20.8,0.3c-10.9-9.9-10.9-9.9-21,0.2c-6.6,6.6-14.3,6.8-21.2,0.4c-1.7-1.6-3.8-3-4.9-4.9
		c-0.8-1.4-0.5-3.5-0.6-5.2c1.7,0.1,3.7-0.4,5,0.4c2.1,1.2,3.7,3.3,5.6,5c3.7,3.2,7,3.2,10.6-0.1c1.8-1.7,3.5-3.5,5.3-5.3
		c6.3-6.1,14.7-6.8,20.4-0.5c8.6,9.4,12.9,10.2,22-0.3c5.6-6.5,13.4-6.2,20-0.6c2.2,1.8,4.2,3.8,6.3,5.7c4.6,3.9,7.9,3.8,12.1-0.3
		c1.7-1.6,3.3-3.3,5-4.9c6-5.7,13.4-5.9,19.8-0.5c2.5,2.2,4.9,4.6,7.4,6.7c4.2,3.6,7.4,3.5,11.4-0.3c1.8-1.7,3.5-3.6,5.3-5.3
		c6-5.6,13.5-5.8,19.8-0.4c2,1.7,3.8,3.8,5.8,5.5c3.5,3.1,7.2,3.1,10.7,0c2.2-2,4.2-4.3,6.4-6.3c5.4-4.9,12.5-5.2,18.2-0.6
		c2.6,2.1,4.9,4.5,7.5,6.6c4.4,3.8,8,3.6,12.3-0.5c2.1-2.1,4.1-4.4,6.4-6.3c4.8-3.8,11.3-4.1,16.2-0.5c2.8,2,5.5,4.4,7.6,7.1
		c0.9,1.1,0.3,3.4,0.4,5.2c-1.6-0.1-3.6,0.3-4.9-0.4c-2.1-1.3-3.7-3.4-5.5-5c-3.7-3.2-7.5-3.1-11.1,0.2c-1.9,1.8-3.6,3.9-5.6,5.7
		c-5.9,5.4-12.7,5.7-19,0.7c-2.2-1.8-4.2-3.8-6.3-5.7c-5.2-4.7-8.3-4.6-13.3,0.1c-1.4,1.4-2.8,2.9-4.2,4.3
		c-6.3,6.2-13.9,6.3-20.5,0.4c-1.1-1-2.1-2.1-3.2-3.1c-6.4-6.2-9.6-6.1-15.8,0.6c-1.4,1.5-2.7,3-4.2,4.2c-5.8,4.6-12.6,4.5-18.2-0.3
		c-2.5-2.2-4.8-4.6-7.4-6.7C324.7,315.5,322.7,314.7,320.6,313.5z"/>
	<path class="st1" d="M385.4,254.3c-3.2-1.4-6-2.5-8.8-3.9c-1.3-0.7-2.2-2-3.3-3c-8.3-7.9-9.7-7.8-17.8,0.3
		c-8.8,8.8-15.4,8.9-24.4,0.5c-1-0.9-2-1.8-2.9-2.7c-6.3-5.9-9.1-5.8-15.1,0.2c-1.2,1.2-2.3,2.4-3.5,3.5c-6.1,5.8-13.4,6-19.7,0.6
		c-2.3-1.9-4.4-4-6.7-6c-4.4-3.7-7.7-3.7-11.8,0.2c-1.9,1.8-3.6,3.9-5.6,5.7c-6,5.2-13,5.2-19,0.1c-1.1-1-2.3-2-3.4-3
		c-7.6-7.1-9.2-7.1-16.7,0.5c-1.2,1.2-2.3,2.4-3.6,3.5c-5.1,4.4-11.6,4.8-17,0.8c-2.7-2-5.2-4.2-7.2-6.9c-1-1.3-0.4-3.7-0.6-5.5
		c1.7,0.2,3.7,0,5.1,0.8c2.1,1.3,3.7,3.3,5.6,5c3.4,3,7,2.8,10.3-0.1c2.2-2,4.1-4.4,6.4-6.3c6.1-5.3,13.7-5.4,19.4,0.2
		c9.8,9.7,11.8,10.8,22.3-0.4c5.7-6.1,13.3-6,19.7-0.6c2.5,2.2,4.9,4.5,7.5,6.6c3.5,2.9,7,2.9,10.3-0.3c1.9-1.8,3.7-3.8,5.6-5.7
		c6.2-5.9,13.7-6.1,20.1-0.4c2.6,2.3,5.1,4.7,7.8,7c3.5,2.9,7,2.8,10.3-0.2c2.1-1.9,3.9-4.1,6-6c5.7-5.3,12.9-5.6,19-0.7
		c1.8,1.5,3.5,3.1,5.2,4.7c5,4.8,8.7,4.7,13.6-0.3c1.7-1.8,3.4-3.7,5.3-5.2c5.5-4.5,12.3-4.5,17.8,0c2.3,1.9,4.5,4,6.7,6
		c5.1,4.5,8.1,4.5,12.9-0.2c1.9-1.8,3.7-3.8,5.7-5.6c4.6-4.1,11.1-4.8,16.1-1.4c3.1,2.1,6,4.8,8.4,7.7c0.9,1,0.1,3.4,0.1,5.2
		c-1.6-0.2-3.5,0.2-4.8-0.6c-1.9-1.2-3.3-3.2-5.1-4.8c-3.9-3.4-7.7-3.4-11.5,0.1c-1.6,1.5-3,3.1-4.6,4.6c-6.5,6.6-13.8,7-20.9,1
		c-1.9-1.6-3.7-3.4-5.6-5c-5.4-4.7-8.7-4.5-13.7,0.6c-1.7,1.8-3.3,3.8-5.4,5.2C391.5,251.9,388.5,252.9,385.4,254.3z"/>
	<path class="st1" d="M339.8,393.8c-1,1.1-1.6,2.5-2.7,2.9c-1,0.4-2.6,0.1-3.5-0.5c-2.5-1.9-4.7-4.3-7.1-6.3
		c-4.6-4-7.8-3.9-12.2,0.2c-13.6,12.8-16.1,12.8-30.2,0.6c-6.2-5.4-9.1-5.2-14.6,0.9c-7.1,7.8-12.8,9.8-19.5,6.4
		c-2.5-1.3-4.6-3.3-6.6-5.2c-7.4-7.1-9.4-7.2-16.8,0.3c-3.4,3.4-6.8,6.7-12.2,6.9c-8.3,0.3-12.3-5.6-17-10.7
		c-0.6-0.6-0.1-3.1,0.7-3.8c0.8-0.7,3-1,3.8-0.4c2.2,1.5,4,3.5,5.9,5.3c4.4,4,7.4,3.9,11.7-0.1c1.7-1.6,3.2-3.4,4.9-5
		c6.3-5.9,14.2-6,20.5-0.3c1.7,1.6,3.4,3.2,5.1,4.7c4.2,3.7,7.7,3.6,11.8-0.3c1.8-1.7,3.4-3.7,5.2-5.3c5.7-5.2,13-5.5,19-0.6
		c2.6,2.1,4.9,4.5,7.5,6.6c3.9,3.3,7.3,3.2,11.1-0.2c1.8-1.7,3.5-3.6,5.3-5.3c6.1-5.8,13.1-6.2,19.7-0.8c2.7,2.2,5.2,4.6,7.7,7.1
		C338.5,391.5,339,392.6,339.8,393.8z"/>
</g>
</svg>
