<?xml version="1.0" encoding="utf-8"?>
<!-- Generator: Adobe Illustrator 24.0.1, SVG Export Plug-In . SVG Version: 6.00 Build 0)  -->
<svg version="1.1" id="Camada_1" xmlns="http://www.w3.org/2000/svg" xmlns:xlink="http://www.w3.org/1999/xlink" x="0px" y="0px"
	 viewBox="0 0 640.5 640.5" style="enable-background:new 0 0 640.5 640.5;" xml:space="preserve">
<style type="text/css">
	.st0{fill:#F4F4F4;}
	.st1{fill:#9C1218;}
</style>
<circle class="st0" cx="320.3" cy="320.3" r="320.3"/>
<g>
	<path class="st1" d="M195,547.6c-13.5-9.8-15.6-25.5-2.5-38.2c-6.1-4.6-10.9-10.1-11.4-18.2c-0.5-8.1,3.1-14.4,9-19.8
		c-6-4.5-10.3-9.7-11.5-17.2c-2-13.4,10.6-26.8,23.9-24.6c26.5,4.5,53,9.2,79.5,13.9c3.7,0.7,7.5,1.3,12,2
		c0.7-6.4,1.4-12.5,2.1-18.5c2.5-20.3,5.4-40.6,13.1-59.7c2.5-6.1,5.9-12,9.9-17.1c6.2-7.8,13.9-9.4,22.7-6.3
		c8.5,3,15.6,11.6,15.5,20.1c-0.1,7.3-1.4,14.5-2.4,21.7c-3.5,26.1-2.1,51.5,9.9,75.5c5.8,11.6,14.4,20.3,26.9,24.7
		c2.4,0.9,4.2,1,6.1-1.3c3.2-3.8,7.5-5.2,12.6-4c2.1,0.5,4.3,0.7,6.4,1.1c4.4,0.9,8.2,1.1,12-2.9c2.1-2.2,7.2-3.1,10.5-2.5
		c44.8,7.7,89.6,15.7,134.4,23.8c2.6,0.5,7.5-0.3,6.6,4.7c-0.8,5-5.2,2.7-7.8,2.3c-43.4-7.7-86.7-15.5-130-23.4
		c-9.2-1.7-10.6-0.9-12.3,8.4c-6.9,38.4-13.8,76.8-20.7,115.2c-0.9,4.9-0.9,8.9,4.9,10.7c1,0.3,2,2.8,1.7,3.9
		c-0.3,1.1-2.3,2.3-3.6,2.3c-4.9,0-8.1-2.9-9.6-7.3c-1.1-3-2.7-4.5-6-4.8c-3.5-0.3-6.9-1.2-10.3-1.9c-4.3-0.9-8-3.1-9.4-7.3
		c-1.3-3.8-3.7-4.9-7.2-4.6c-10.2,0.9-20.5,1.2-30.6,3.1c-21,4-41.6,2.8-62.4-1.1c-23.8-4.5-47.7-8.6-71.6-12.9
		c-9.2-1.6-15.6-6.7-18.3-15.6c-2.8-9,0-16.7,6.8-23C194.3,548.8,194.5,548.3,195,547.6z M394,494c-10.6-3-19.4-7.9-26-16
		c-17.5-21.1-21.9-46.2-21.4-72.5c0.2-12.5,2.8-25,4.2-37.6c0.8-6.8-4.3-14.8-10.9-17.5c-6.6-2.6-12.5-0.8-17.3,5.9
		c-2.4,3.4-4.5,7-6.1,10.8c-9.7,23.7-12.3,48.8-15.2,73.9c-0.5,4.8,1.5,6.5,5.9,6.8c2.5,0.2,4.9,0.6,7.4,1.2c2.4,0.5,5,1.7,3.7,4.6
		c-0.5,1.3-3.4,2.6-4.9,2.3c-27-4.7-53.9-9.6-80.9-14.4c-9.6-1.7-19.3-3.6-28.9-5.1c-8.8-1.4-16.5,3.8-18.1,11.9
		c-1.6,8.1,3.6,15.8,12.3,17.7c5.5,1.2,11.1,2,16.7,3c2.6,0.5,4.9,1.7,3.8,4.5c-0.5,1.2-3.1,2.3-4.8,2.3c-2.9,0-5.9-0.9-8.8-1.3
		c-9.4-1.2-17.7,7.2-16.4,16.6c1,7.8,5.8,12.3,14.8,13.8c4.9,0.8,9.9,1.4,14.7,2.6c1.4,0.4,2.4,2.5,3.7,3.8c-1.6,1-3.2,2.7-4.9,2.8
		c-2.6,0.2-5.2-0.6-7.9-1.1c-8.6-1.5-16,3.4-17.9,11.9c-1.6,7.4,3.5,15.3,11.6,17.2c5.5,1.3,11.1,2,16.6,3.1
		c2.4,0.5,5.3,0.9,4.6,4.5c-0.7,3.8-3.7,2.6-6,2.4c-3.8-0.3-7.6-1.6-11.3-1.1c-8.1,1-12.9,6.8-12.9,14.6c0,8.1,5,13.8,13.5,15.3
		c22.2,4,44.5,7.7,66.6,12c22.7,4.4,45.4,6,68.3,1.1c10.4-2.2,20.9-4.2,31.6-2.3c1,0.2,3.3-1.9,3.5-3.2c3.5-18.3,6.7-36.6,10-54.9
		C389.4,520.6,391.7,507.6,394,494z M383.2,597.3c-0.4,4,2,5.9,5.4,6.7c2.4,0.6,4.9,0.8,7.4,1.2c6.7,1.1,6.8,1.1,7.9-5.3
		c5.8-32.7,11.6-65.4,17.3-98.1c2.1-12.1,2.1-12.1-9.9-14.1c-6.6-1.1-8.6,0.5-9.8,7.2c-3.9,21.7-7.8,43.5-11.7,65.2
		C387.5,572.4,385.3,584.9,383.2,597.3z"/>
	<path class="st1" d="M170.8,249.1c10.8-1.5,21-3,31.2-4.5c12-1.8,24-3.7,36-5.3c6-0.8,13.1,3.2,16.1,8.9c3.5,6.5,3.1,12.8-1.4,18.7
		c-1.3,1.7-2.9,3.2-3.5,3.8c1.5,5.7,4.2,10.8,3.8,15.7c-0.4,4.8-4,9.4-6.2,14c1.1,4.3,3.7,9.4,3.3,14.2c-0.4,4.8-3.9,9.4-6.2,14.4
		c1,3.5,3.2,8.1,3.5,12.8c0.6,8.2-5.6,15.3-13.7,16.5c-22.8,3.4-45.7,7-68.6,9.8c-14,1.8-27.8-1.2-41.5-4.1
		c-3.7-0.8-7.6-1.2-11.4-1.5c-3.7-0.3-7,0.3-9.4,4.2c-2.6,4.4-7.7,4.6-12.2,5.8c-2.5,0.6-5.3,2-6.8,3.9c-3.4,4.3-8.1,5-12.8,5.9
		c-17.8,3.2-35.6,6.3-53.5,9.6c-2.5,0.5-4.8,0.9-5.5-2.2c-0.8-3.5,1.9-4.2,4.5-4.6c18.6-3.4,37.3-6.7,55.9-10.1
		c5.5-1,7.2-3.3,6.4-8.7c-4.2-28.6-8.5-57.2-12.7-85.8c-0.6-4.2-2.4-5.2-6.4-4.4c-14.5,2.9-29.1,5.5-43.6,8.2
		c-0.8,0.2-1.8,0.5-2.5,0.2c-1.6-0.6-3.2-1.6-4.7-2.4c1.2-1.5,2.1-3.8,3.6-4.2c5.9-1.5,12-2.5,18.1-3.6c9.1-1.7,18.3-3.4,27.5-5
		c4.7-0.8,9.2-0.9,12.9,3.2c0.8,0.9,3,1.2,4.4,1c5.6-0.9,10.8-0.8,15.7,2.8c1.3,0.9,3.8,1,5.5,0.5c7.4-2.4,13.2-7.1,17.2-13.7
		c10.3-16.5,12.9-34.7,11.5-53.7c-0.5-7.6-1.8-15.2-1.3-22.7c0.5-7.3,7.2-13.3,14-14.5c7.6-1.4,13.5,1.3,18,8.7
		c7.1,11.6,9.6,24.7,11.4,37.9C168.8,228.7,169.7,238.6,170.8,249.1z M105.6,354.9c9.5,1.4,18.5,3,27.5,4c10,1.1,20.2,2.8,30.1,2.1
		c16-1.1,32-3.9,47.9-6.1c7.1-1,14.2-1.9,21.2-3.3c6.8-1.4,10-7.6,7.7-13.6c-2.2-5.6-7-7.8-15.1-6.1c-3.1,0.6-6.2,1-6.6-2.8
		c-0.3-3.4,3-3.7,5.7-4.1c4.1-0.5,8.3-1,12.2-2.1c5.1-1.4,8.2-6.6,7.2-11.1c-1.2-5.7-5.2-8.9-11-8.6c-2.2,0.1-4.4,0.7-6.5,0.2
		c-1.7-0.4-3.3-1.8-4.9-2.8c1.5-1.2,2.7-3.2,4.4-3.6c4.2-1.1,8.5-1.3,12.7-2.3c5.8-1.3,9-6.5,7.8-12c-1.1-5.5-6.1-8.8-11.9-8
		c-2,0.3-4,0.8-5.9,0.5c-1.5-0.2-2.8-1.6-4.1-2.5c1.1-1.3,2-3.5,3.3-3.8c3.8-1.1,7.8-1.4,11.8-2c6.6-1,10.4-5.4,9.8-11.5
		c-0.6-6.7-6.3-10-14.6-8.8c-23.6,3.6-47.3,7.1-71,10.6c-3.3,0.5-6.6,1.1-9.9,1c-1.2,0-3.1-1.6-3.3-2.7c-0.2-1,1.2-2.9,2.4-3.5
		c1.7-0.8,3.9-1,5.8-1.1c3.6-0.1,5.1-1.6,4.6-5.3c-1.6-12.5-2.3-25.2-4.7-37.5c-1.7-8.5-5.2-16.8-9-24.6c-2.6-5.3-7.2-6.1-11.9-4.1
		c-5.7,2.5-8,8.3-6.7,16.1c2.6,16.2,2.9,32.5-1.4,48.5c-4.8,17.6-12.4,33.1-31.4,39.7c-1.1,0.4-2.2,3.1-2,4.6
		c1,8.3,2.3,16.5,3.5,24.7C101.5,327.2,103.6,341.3,105.6,354.9z M74.5,281c-0.3,0.6-0.4,0.8-0.4,0.9c3.8,27.1,7.6,54.2,11.6,81.3
		c0.1,0.9,1.1,2.3,1.9,2.5c5.9,1.9,11.6-2.9,10.7-9c-3.4-23.7-6.8-47.3-10.2-71c-0.6-4-2.8-6-6.7-6C79,279.8,76.6,280.6,74.5,281z"
		/>
	<path class="st1" d="M397,328.5c-10-9.9-10.6-16.5-3.1-28.1c-9.8-12.8-10.2-17.2-1.9-29.4c-1.3-0.8-3.1-1.6-4.3-2.9
		c-5.2-5.6-6-13.1-2.3-19.9c3.5-6.2,10.5-9.6,17.7-8.6c20.9,3.1,41.8,6.1,62.6,9.1c0.8,0.1,1.6,0,3.1,0c0.8-7.7,1.3-15.2,2.3-22.7
		c1.9-15.2,3.8-30.4,11.7-44c5.3-9.1,12.3-12.2,20.7-9.3c8.7,3,13.7,11.6,12.2,21.4c-2.7,18.3-3.3,36.4,2.9,54.3
		c4,11.7,9.9,21.9,21.6,27.4c3.4,1.6,6.3,1.7,10.1-0.3c3.8-2,8.8-1.5,13.3-2c1.5-0.2,3.7,0.2,4.5-0.7c3.8-4.3,8.5-4.2,13.4-3.6
		c14.7,1.9,29.3,3.9,44,6c2.6,0.4,5.7,0.8,4.9,4.7c-0.8,3.8-3.7,2.4-6,2c-15-2.1-30-4.1-45-6.2c-3.5-0.5-5.6,0.5-6.2,4.5
		c-2.8,19.9-5.8,39.8-8.8,59.7c-1.2,8.1-2.3,16.1-3.6,24.2c-1.3,7.8,0.1,9.9,7.9,11.1c18.1,2.6,36.2,5.2,54.3,7.7
		c2.4,0.3,4.8,0.6,4.5,4c-0.4,3.5-3,3.1-5.3,2.8c-15.8-2.1-31.6-4.4-47.4-6.6c-3.3-0.5-6.7-0.6-9.8-1.6c-3-1-6.5-2.2-8.5-4.4
		c-2.7-3-5.3-4.5-9.3-4.8c-5.1-0.3-8.6-3.1-12.3-6.7c-2.2-2.2-6.9-2.8-10.3-2.5c-6.9,0.6-13.8,2.1-20.6,3.5
		c-15.1,3.2-30.1,2.1-45.1-0.1c-17.1-2.5-34.2-5-51.2-7.8c-14.9-2.4-20.5-16-11.9-28.3C396.1,329.8,396.5,329.2,397,328.5z
		 M410.6,304.6c-0.2-0.4-0.3-0.8-0.5-1.2c-0.7,0-1.3,0-2,0c-6.9-0.4-11.4,2.8-12.3,8.7c-0.8,5.2,3.2,10.1,9.6,11.4
		c3.4,0.7,6.9,1.1,10.3,1.5c2.7,0.3,5.9,0.6,5.3,4.3c-0.5,3.6-3.4,3-6.3,2.6c-3.2-0.4-6.7-0.5-9.8,0.4c-4.1,1.1-6.8,6.3-6.3,10.3
		c0.6,5.1,4.7,8.6,10.7,9.4c17.4,2.5,34.8,5.2,52.2,7.7c12.7,1.8,25.4,2.8,38.2,0.5c10.4-1.9,21-2.7,31.5-4.4
		c1.1-0.2,2.6-2.2,2.8-3.6c3.4-21.5,6.5-43,9.8-64.5c0.5-3-1.2-3.7-3.4-4.4c-10.3-3.4-17.6-10.5-22.8-19.9
		c-10.1-18.3-12-38.1-10.2-58.5c0.4-5,1.4-9.9,1.5-14.9c0.1-5.2-3.5-9.5-8.5-11c-5.1-1.5-8.4,1.2-10.9,5c-2.1,3.3-3.8,7-5.1,10.7
		c-5.1,15.1-6.8,30.8-7.9,46.5c-0.6,8.3-0.3,8.3,7.9,10.1c2.3,0.5,5.5,0.4,4.9,4.2c-0.6,3.6-3.6,3-6,2.7c-7.7-1.1-15.4-2.3-23.2-3.5
		c-19.1-2.8-38.1-5.7-57.2-8.3c-7-1-12.1,2.9-12.6,8.9c-0.6,6.4,3.2,10.6,10.3,11.6c4.1,0.6,8.3,1.1,12.3,2.1
		c1.1,0.3,2.2,2.3,2.2,3.6c0,0.9-1.8,2.4-2.9,2.5c-2.3,0.3-4.6-0.1-6.9-0.4c-5.9-0.8-10.8,2.3-12,7.8c-1.2,5.6,1.9,10.6,7.7,12.1
		c3.2,0.8,6.6,0.7,9.8,1.7c2.8,0.8,7.9-0.7,7.1,4.5C417.7,302.5,413.2,303.4,410.6,304.6z M565.8,281.1c-1.6-0.3-2.5-0.6-3.5-0.7
		c-8.4-1.4-9.7-0.6-11.1,8c-2,12.5-3.8,25-5.7,37.5c-1.6,10.7-3.1,21.4-4.6,32.1c-0.6,4.7,1.8,6.5,8.8,7.7c4.8,0.8,4.1-2.4,4.5-5.1
		c1.5-10,3.1-20,4.5-30C561,314.2,563.3,298,565.8,281.1z"/>
	<path class="st1" d="M186,167.7c1-3.4,1.4-5.6,2.2-7.5c6.4-14.8,12.9-29.6,19.5-44.3c3.5-7.9,9.6-9.4,16.4-4.1
		c5.9,4.6,11.7,9.4,17.4,14.2c6,5,5.9,11.1-0.2,16c-12.9,10.3-25.9,20.4-38.9,30.6c-3.2,2.5-6.9,4.2-10.5,1.7
		C189.4,172.6,187.7,169.7,186,167.7z M239.1,133.9c-1.1-1.2-1.8-2.3-2.8-3.1c-5.2-4.4-10.6-8.5-15.8-13c-3.4-2.9-5.2-2.2-6.9,1.8
		c-6.2,14.5-12.7,28.9-18.9,43.3c-0.6,1.3-0.3,3.1-0.4,4.6c1.6-0.4,3.6-0.4,4.8-1.3c12.5-9.7,24.8-19.5,37.2-29.3
		C237.3,136.2,238,135.1,239.1,133.9z"/>
	<path class="st1" d="M510,96.8c0-3.7-0.1-6.5,0-9.4c0.2-6.3,4.7-10.3,10.8-9.3c8.3,1.4,16.6,3.1,24.8,4.9c6.1,1.3,9.1,6.8,6.5,12.4
		c-7.5,16.1-15.3,32.1-23.1,48.1c-2,4-5.6,5.8-10,4.7c-4.6-1.1-7-4.3-7.2-9C511.2,124.8,510.5,110.4,510,96.8z M520.8,85.3
		c-3.8-0.7-4.3,1.7-4.2,4.5c0.3,7,0.6,13.9,0.9,20.9c0.4,9,0.6,17.9,1.1,26.9c0.1,1.2,1.2,2.4,1.9,3.7c1-0.7,2.4-1.2,2.9-2.2
		c7.4-15,14.8-30.1,22.1-45.2c1.1-2.3,0.6-3.9-2.1-4.4C535.8,88.1,528.3,86.7,520.8,85.3z"/>
	<path class="st1" d="M124.1,76.1c7.1,0,14.3-0.1,21.4,0c9.4,0.1,13.2,5,10.8,14.2c-3.9,15.4-7.9,30.8-12,46.2
		c-1.4,5.4-5.2,8.7-9.6,8.7c-4.3,0-7.7-2.9-9.1-8.5c-4-16.4-8-32.9-11.8-49.3C112.2,80.3,117,74.8,124.1,76.1z M134.6,82.5
		c-3.4,0-6.6,0.1-9.7,0c-3.5-0.2-5,1.2-4.1,4.8c3.9,15.8,7.7,31.6,11.7,47.4c0.3,1.2,1.6,2.1,2.5,3.2c0.8-1.1,2.2-2,2.5-3.3
		c4.2-15.6,8.2-31.2,12.3-46.7c0.8-3-0.3-4.4-3.4-4.5C142.4,83.1,138.4,82.7,134.6,82.5z"/>
	<path class="st1" d="M463.7,121.2c0,6.2,0,12.3,0,18.5c0,5.7-2.1,9.2-6.5,10.5c-4.3,1.3-8.3-0.4-11.1-5.4
		c-8.4-14.7-16.7-29.5-24.8-44.4c-3.5-6.5-0.9-12.4,6.3-14.3c7.7-2.1,15.4-3.9,23.2-5.7c6.9-1.6,11.8,2.1,11.9,9.4
		c0.2,10.5,0.1,20.9,0.1,31.4C463.1,121.2,463.4,121.2,463.7,121.2z M457,127c-0.3,0-0.6,0-1,0c0-11.8,0-23.6,0-35.3
		c0-3.4-1.1-5.1-4.7-4.2c-7.3,1.7-14.5,3.4-21.8,5.2c-2.4,0.6-3.3,2.1-2,4.5c8.2,14.6,16.3,29.3,24.5,43.9c0.5,1,2,1.4,3,2.1
		c0.6-1.2,1.7-2.4,1.8-3.6C457.1,135.4,457,131.2,457,127z"/>
</g>
</svg>
